<?xml version="1.0" standalone="no"?>
<!DOCTYPE svg PUBLIC "-//W3C//DTD SVG 20010904//EN"
 "http://www.w3.org/TR/2001/REC-SVG-20010904/DTD/svg10.dtd">
<svg version="1.0" xmlns="http://www.w3.org/2000/svg"
 width="1920.000000pt" height="1080.000000pt" viewBox="0 0 1920.000000 1080.000000"
 preserveAspectRatio="xMidYMid meet">

<g transform="translate(0.000000,1080.000000) scale(0.100000,-0.100000)"
fill="#000000" stroke="none">
<path d="M10257 8653 c-10 -9 -9 -23 1 -23 5 0 9 7 9 15 0 17 -1 18 -10 8z"/>
<path d="M10086 8607 c3 -10 9 -15 12 -12 3 3 0 11 -7 18 -10 9 -11 8 -5 -6z"/>
<path d="M10275 8505 c4 -16 10 -34 15 -39 11 -11 7 11 -9 44 -11 24 -11 24
-6 -5z"/>
<path d="M10064 8495 c1 -8 6 -18 11 -22 4 -4 5 -3 2 4 -4 6 -2 13 5 15 8 3 6
6 -4 10 -10 4 -15 2 -14 -7z"/>
<path d="M10066 8423 c-4 -9 -1 -21 5 -27 9 -8 10 -7 6 7 -4 9 -2 17 3 17 6 0
10 5 10 10 0 16 -17 11 -24 -7z"/>
<path d="M10290 8375 c0 -9 9 -15 23 -14 12 0 16 3 9 6 -6 2 -10 9 -6 14 3 5
-2 9 -10 9 -9 0 -16 -7 -16 -15z"/>
<path d="M10295 8340 c-3 -5 1 -10 10 -10 9 0 13 5 10 10 -3 6 -8 10 -10 10
-2 0 -7 -4 -10 -10z"/>
<path d="M10296 8218 c3 -51 7 -106 8 -122 1 -23 7 -30 26 -33 14 -1 20 0 15
4 -17 13 -39 62 -31 70 4 4 9 -3 13 -15 6 -25 23 -30 23 -8 0 8 -10 22 -22 30
l-22 16 21 0 c12 0 24 -6 27 -12 3 -7 4 -4 3 7 -2 14 -9 19 -26 17 -18 -2 -22
2 -17 14 3 8 6 21 6 27 0 7 4 6 10 -3 6 -9 10 -10 10 -3 0 7 -8 16 -17 22 -10
5 -15 13 -11 17 4 4 16 1 25 -7 16 -13 17 -12 4 4 -7 9 -20 17 -28 17 -8 0
-11 5 -8 10 4 6 10 8 15 5 5 -3 12 0 16 6 5 9 0 10 -15 6 -17 -4 -21 -2 -17 9
3 8 1 14 -4 14 -6 0 -7 -36 -4 -92z"/>
<path d="M10031 8283 c-1 -12 -7 -24 -13 -26 -10 -4 -10 -6 0 -6 15 -1 26 23
19 41 -3 7 -6 3 -6 -9z"/>
<path d="M10040 8241 c0 -6 5 -13 10 -16 6 -3 10 1 10 9 0 9 -4 16 -10 16 -5
0 -10 -4 -10 -9z"/>
<path d="M10020 8189 c-23 -6 -21 -9 10 -13 6 0 10 -4 10 -8 0 -5 0 -13 0 -20
0 -6 -6 -3 -14 7 -14 19 -14 19 -13 -6 2 -33 35 -37 43 -4 9 35 -6 53 -36 44z"/>
<path d="M10034 8082 c4 -7 1 -12 -8 -12 -21 0 -20 -17 2 -29 11 -7 12 -10 3
-11 -7 0 -11 -6 -7 -15 3 -9 -4 -21 -19 -31 -27 -17 -23 -44 6 -44 13 0 16 -5
12 -16 -5 -13 -8 -13 -15 -2 -8 11 -6 -9 6 -64 0 -3 -3 -6 -9 -7 -5 0 -10 5
-11 12 -2 27 -5 29 -19 17 -14 -12 -14 -15 1 -31 15 -17 11 -45 -6 -34 -4 3
-6 -4 -3 -15 3 -11 0 -20 -6 -20 -6 0 -11 -5 -11 -11 0 -6 7 -9 15 -5 8 3 15
1 15 -4 0 -5 -9 -12 -20 -15 -15 -5 -18 -10 -11 -23 6 -11 4 -20 -7 -29 -12
-8 -13 -12 -4 -13 7 0 10 -5 7 -10 -4 -6 1 -23 11 -38 15 -24 16 -25 1 -13 -9
7 -17 10 -17 5 0 -5 -5 -2 -11 6 -9 12 -10 12 -5 -4 4 -11 1 -23 -6 -28 -10
-6 -10 -8 0 -8 6 0 12 -8 12 -18 0 -10 5 -23 11 -29 8 -8 5 -13 -10 -18 -14
-4 -20 -14 -18 -28 1 -14 -3 -21 -11 -19 -8 1 -11 -2 -7 -8 3 -6 11 -7 17 -4
6 4 5 -3 -2 -16 -9 -18 -9 -24 0 -30 9 -6 9 -10 -2 -16 -19 -12 -28 -47 -17
-67 7 -12 5 -14 -11 -10 -16 4 -19 2 -14 -11 3 -9 11 -13 18 -9 6 4 5 -1 -3
-10 -7 -9 -18 -14 -24 -10 -6 3 -7 1 -3 -6 4 -6 12 -9 17 -6 5 4 9 -1 9 -9 0
-10 -6 -13 -15 -10 -11 5 -13 2 -8 -12 5 -13 3 -15 -8 -9 -11 7 -11 5 1 -10 9
-11 10 -16 3 -11 -8 4 -13 1 -13 -9 0 -9 -5 -13 -11 -9 -8 4 -8 0 0 -15 9 -16
9 -21 -1 -21 -9 0 -9 -3 0 -12 8 -8 7 -17 -7 -37 -10 -14 -19 -30 -19 -34 0
-5 -4 -12 -8 -15 -4 -4 -4 -2 0 5 4 8 -1 11 -14 10 -21 -1 -26 -12 -10 -22 6
-3 10 -12 10 -18 0 -9 -2 -9 -8 -1 -4 7 -15 8 -27 3 -11 -4 -14 -8 -7 -8 7 -1
10 -6 7 -12 -5 -6 -12 -4 -21 8 -11 15 -13 16 -14 2 0 -19 -38 -19 -50 0 -5 8
-10 9 -14 3 -7 -12 -68 -4 -77 10 -4 7 -14 6 -29 -2 -17 -9 -21 -9 -15 0 4 7
-1 13 -14 17 -12 3 -21 10 -21 15 0 5 -5 6 -12 2 -8 -5 -9 -2 -5 9 3 9 3 16
-1 16 -4 -1 -10 0 -14 1 -5 1 -14 3 -20 4 -7 1 -12 11 -10 24 2 16 -2 22 -15
22 -14 0 -15 -2 -4 -9 7 -5 10 -14 7 -20 -10 -16 -26 -4 -26 20 0 11 -5 17
-10 14 -14 -9 8 -46 31 -52 10 -3 17 -9 14 -13 -3 -5 8 -18 25 -30 16 -12 30
-19 30 -16 0 3 16 -12 36 -34 20 -22 67 -64 103 -92 36 -29 100 -82 141 -119
94 -83 117 -96 136 -77 26 26 47 171 64 433 5 83 14 168 20 190 6 22 15 121
20 220 6 99 17 213 25 254 20 96 19 131 -1 131 -8 0 -12 5 -9 10 4 6 11 8 16
5 5 -4 10 9 11 27 0 18 2 46 3 61 1 15 -2 30 -8 34 -6 3 -7 1 -3 -5z m-84
-584 c0 -4 -4 -8 -9 -8 -6 0 -12 4 -15 8 -3 5 1 9 9 9 8 0 15 -4 15 -9z m-48
-140 c-8 -8 -9 -4 -5 13 4 13 8 18 11 10 2 -7 -1 -18 -6 -23z"/>
<path d="M9986 8061 c-7 -11 22 -36 31 -28 3 4 -2 9 -11 13 -9 3 -13 10 -10
15 3 5 3 9 0 9 -3 0 -7 -4 -10 -9z"/>
<path d="M10315 8047 c-4 -10 0 -52 5 -52 2 0 4 -27 25 -305 9 -113 22 -250
30 -305 7 -55 16 -167 20 -250 3 -82 10 -166 15 -186 6 -20 14 -75 19 -124 10
-102 25 -126 67 -107 34 16 137 100 225 184 38 37 83 75 99 85 17 9 33 25 36
35 3 10 9 16 13 13 12 -7 43 30 34 40 -5 4 -3 5 4 1 15 -8 63 21 62 38 0 7 -2
6 -6 -1 -8 -20 -29 -15 -42 10 -6 12 -10 15 -8 7 4 -19 -24 -51 -37 -43 -6 4
-5 -1 3 -10 15 -19 2 -24 -16 -6 -13 13 -36 3 -28 -12 4 -5 1 -9 -4 -9 -6 0
-11 4 -11 10 0 5 -7 7 -15 4 -8 -4 -13 -10 -10 -14 3 -5 1 -11 -5 -15 -10 -6
-14 7 -10 34 1 13 -1 13 -15 1 -11 -9 -13 -16 -6 -18 6 -2 8 -8 5 -13 -3 -6
-12 -2 -21 8 -14 17 -14 17 -10 -3 3 -16 0 -21 -12 -19 -9 1 -28 -4 -43 -11
-17 -9 -29 -10 -33 -4 -4 6 -11 8 -16 5 -5 -4 -9 3 -9 13 0 11 -8 23 -17 27
-15 5 -16 4 -5 -6 26 -27 10 -26 -20 1 -17 16 -36 26 -41 23 -6 -3 -7 -1 -3 5
3 6 2 13 -4 17 -5 3 -10 12 -10 18 0 7 5 4 11 -5 5 -10 16 -15 25 -11 12 4 11
9 -8 22 -13 9 -27 15 -31 13 -5 -1 -6 2 -2 8 3 5 2 10 -2 10 -5 0 -9 8 -9 18
-1 9 -4 26 -8 37 -3 11 3 1 14 -23 19 -38 41 -49 39 -19 0 9 -2 8 -6 -1 -2 -7
-16 10 -30 38 -14 28 -23 54 -19 57 3 3 -2 12 -12 20 -13 11 -14 14 -2 10 12
-4 16 3 15 23 0 16 -4 26 -9 22 -5 -3 -6 3 -2 13 5 15 4 16 -9 5 -13 -10 -15
-9 -15 8 0 16 4 20 17 15 15 -6 16 -5 3 9 -8 9 -18 14 -22 11 -5 -2 -8 1 -8 6
0 6 5 11 10 11 17 0 11 25 -10 38 -11 7 -20 18 -20 25 0 8 4 7 10 -3 8 -12 10
-13 10 -1 0 8 -7 22 -15 31 -19 21 -29 70 -15 70 5 0 10 14 10 30 0 17 5 30
12 30 6 0 8 3 5 6 -4 4 -13 1 -21 -5 -11 -10 -14 -9 -12 1 1 7 5 19 10 26 5 8
3 11 -5 10 -7 -2 -15 5 -17 15 -2 11 3 17 15 18 10 0 13 3 6 6 -7 2 -13 13
-13 24 0 10 -3 18 -7 17 -5 -2 -8 2 -8 7 0 6 5 9 10 7 6 -2 5 2 -2 9 -6 6 -9
18 -6 26 5 12 1 14 -18 9 -23 -6 -23 -6 -2 5 21 11 35 49 24 68 -4 5 -15 9
-26 8 -13 -1 -20 5 -21 19 -1 11 5 21 12 21 9 0 10 -5 3 -19 -6 -12 -6 -18 1
-18 5 0 10 4 10 9 0 5 2 15 5 23 3 8 -6 18 -25 25 -16 6 -30 17 -30 25 0 10 2
10 8 1 5 -8 13 -9 22 -3 8 6 11 10 7 10 -4 0 -3 9 3 19 7 14 7 22 0 26 -6 4
-10 3 -9 -2 3 -18 -1 -33 -10 -33 -5 0 -7 10 -3 22 4 16 2 19 -9 13 -12 -7
-12 -6 -1 7 10 13 10 17 -3 22 -9 3 -18 0 -20 -7z m75 -192 c-7 -8 -17 -15
-22 -15 -11 0 14 29 26 30 5 0 3 -7 -4 -15z"/>
<path d="M10001 8004 c0 -11 3 -14 6 -6 3 7 2 16 -1 19 -3 4 -6 -2 -5 -13z"/>
<path d="M9961 7914 c0 -11 3 -14 6 -6 3 7 2 16 -1 19 -3 4 -6 -2 -5 -13z"/>
<path d="M9940 7800 c0 -5 5 -10 11 -10 5 0 7 5 4 10 -3 6 -8 10 -11 10 -2 0
-4 -4 -4 -10z"/>
<path d="M9906 7552 c-3 -6 -1 -14 5 -17 14 -9 20 -2 10 14 -6 8 -11 9 -15 3z"/>
<path d="M10429 7543 c-13 -16 -12 -17 4 -4 9 7 17 15 17 17 0 8 -8 3 -21 -13z"/>
<path d="M8997 7330 c3 -11 9 -20 13 -20 5 0 6 9 3 20 -3 11 -9 20 -13 20 -5
0 -6 -9 -3 -20z"/>
<path d="M11331 7296 c-10 -11 -9 -14 1 -12 14 2 23 15 15 22 -2 2 -10 -2 -16
-10z"/>
<path d="M9025 7280 c4 -6 11 -8 16 -5 14 9 11 15 -7 15 -8 0 -12 -5 -9 -10z"/>
<path d="M11295 7260 c-3 -5 -2 -10 4 -10 5 0 13 5 16 10 3 6 2 10 -4 10 -5 0
-13 -4 -16 -10z"/>
<path d="M9047 7249 c7 -7 15 -10 18 -7 3 3 -2 9 -12 12 -14 6 -15 5 -6 -5z"/>
<path d="M9097 7204 c5 -13 3 -15 -8 -10 -8 4 1 -5 19 -21 33 -29 46 -56 15
-32 -10 7 -8 2 5 -12 12 -14 19 -29 15 -34 -5 -4 -3 -5 4 -2 6 4 13 2 15 -5 2
-6 12 -12 21 -14 9 -1 15 2 11 7 -3 5 -10 7 -15 3 -6 -3 -9 2 -7 12 2 11 -3
19 -12 19 -8 0 -14 8 -12 17 1 9 -8 25 -21 35 -13 10 -22 23 -20 30 2 6 -1 14
-6 18 -7 4 -8 0 -4 -11z"/>
<path d="M9357 7166 c-10 -8 -14 -16 -10 -19 5 -3 14 3 21 14 14 22 13 23 -11
5z"/>
<path d="M11233 7173 c-7 -2 -13 -13 -13 -24 0 -10 -4 -18 -9 -16 -5 1 -9 -1
-10 -5 -1 -5 -10 -17 -21 -28 -21 -21 -19 -40 3 -40 7 0 6 4 -3 10 -13 8 -12
10 3 10 10 0 16 4 13 9 -8 12 19 33 29 23 5 -4 5 -2 2 4 -3 6 0 22 8 37 8 15
13 27 12 26 -1 0 -8 -3 -14 -6z"/>
<path d="M10936 7135 c-7 -20 6 -26 21 -10 10 10 9 14 -2 18 -7 3 -16 -1 -19
-8z"/>
<path d="M10986 7138 c3 -5 10 -6 15 -3 13 9 11 12 -6 12 -8 0 -12 -4 -9 -9z"/>
<path d="M9796 7127 c3 -10 9 -15 12 -12 3 3 0 11 -7 18 -10 9 -11 8 -5 -6z"/>
<path d="M10565 7081 c-3 -5 -1 -12 5 -16 5 -3 10 1 10 9 0 18 -6 21 -15 7z"/>
<path d="M9530 7060 c0 -5 5 -10 11 -10 5 0 7 5 4 10 -3 6 -8 10 -11 10 -2 0
-4 -4 -4 -10z"/>
<path d="M9573 7052 c8 -10 12 -11 15 -3 3 8 9 6 19 -6 13 -17 13 -16 4 4 -7
12 -19 21 -31 20 -15 -1 -17 -4 -7 -15z"/>
<path d="M9180 7050 c-13 -8 -11 -11 8 -16 12 -4 22 -13 22 -22 0 -8 3 -12 7
-8 4 3 12 -3 18 -15 9 -16 13 -18 18 -7 5 14 -37 78 -51 78 -4 0 -14 -5 -22
-10z"/>
<path d="M9626 7047 c3 -10 9 -15 12 -12 3 3 0 11 -7 18 -10 9 -11 8 -5 -6z"/>
<path d="M11134 7033 c-9 -16 -24 -33 -32 -39 -7 -5 -15 -22 -15 -36 -1 -14
-7 -24 -13 -21 -11 4 -55 -45 -97 -107 -10 -14 -28 -41 -42 -60 -13 -19 -44
-63 -68 -97 -23 -34 -58 -78 -76 -98 -18 -20 -39 -51 -47 -70 -20 -49 -3 -62
93 -70 43 -4 96 -13 118 -20 22 -7 87 -16 144 -19 56 -4 133 -13 170 -21 37
-8 125 -19 197 -25 71 -6 166 -17 212 -25 45 -8 89 -12 97 -8 8 3 15 0 15 -6
0 -19 27 -12 33 9 3 11 1 20 -5 20 -6 0 -7 7 -4 16 3 9 2 12 -5 9 -6 -4 -8
-14 -4 -24 5 -13 4 -14 -6 -3 -16 15 -33 16 -23 1 4 -7 -1 -7 -16 1 -12 6 -28
9 -36 6 -8 -3 -14 1 -14 9 0 8 -3 14 -7 14 -22 -4 -32 3 -27 16 5 11 2 13 -11
9 -10 -4 -21 -1 -26 7 -7 11 -9 11 -9 -3 0 -9 6 -18 13 -21 6 -2 0 -4 -15 -4
-22 0 -26 2 -18 16 7 14 3 17 -23 19 -24 2 -28 0 -17 -8 12 -8 12 -10 1 -10
-8 0 -20 8 -28 18 -8 9 -12 11 -8 5 4 -9 1 -11 -9 -7 -9 3 -13 11 -9 18 3 6
-4 2 -17 -9 -13 -11 -20 -14 -16 -7 11 18 -5 15 -21 -5 -8 -10 -11 -12 -7 -4
5 11 3 13 -9 8 -10 -3 -17 -2 -17 3 0 6 6 10 13 10 8 0 14 6 14 14 0 7 -7 12
-16 11 -9 -2 -16 -4 -16 -5 0 -1 -10 -3 -23 -4 -13 -2 -27 4 -32 13 -5 9 -10
11 -10 5 0 -6 -7 -11 -15 -11 -10 0 -14 6 -10 15 3 9 0 12 -9 9 -7 -3 -19 0
-26 6 -10 9 -11 9 -6 0 4 -8 1 -13 -7 -13 -8 0 -17 7 -21 15 -8 21 -48 35 -63
23 -9 -7 -13 -7 -13 0 0 6 -15 10 -35 8 -27 -3 -36 0 -40 15 -4 11 -10 19 -15
19 -5 0 -6 8 -3 18 7 16 6 16 -11 0 -21 -22 -36 -23 -36 -3 0 7 -7 18 -17 23
-10 6 -14 16 -10 26 4 9 3 14 -2 11 -5 -3 -12 -1 -15 4 -3 5 1 11 9 15 21 8
19 36 -2 36 -13 0 -14 3 -6 11 6 6 9 18 6 25 -3 8 1 14 11 14 21 0 20 8 -1 34
-17 20 -17 20 0 7 16 -13 19 -12 24 7 3 12 10 22 15 22 5 0 6 5 3 10 -5 8 -11
7 -21 -1 -7 -6 -11 -15 -8 -20 3 -5 -2 -6 -10 -3 -18 7 -22 25 -5 22 10 -3 15
10 21 60 2 15 4 15 31 0 21 -11 21 -10 7 7 -14 17 -13 18 2 13 9 -4 19 -1 21
7 7 16 -1 25 -22 25 -14 0 -14 -2 -1 -11 12 -9 12 -10 1 -7 -21 6 -26 28 -6
28 25 0 42 22 55 69 6 23 14 40 18 37 4 -3 9 4 9 15 2 25 -1 24 -23 -8z m-80
-139 c3 -8 2 -12 -4 -9 -6 3 -10 10 -10 16 0 14 7 11 14 -7z m261 -444 c3 -5
1 -10 -4 -10 -6 0 -11 5 -11 10 0 6 2 10 4 10 3 0 8 -4 11 -10z"/>
<path d="M10663 7044 c4 -4 1 -14 -6 -22 -10 -13 -9 -14 11 -3 27 14 27 17 5
25 -10 4 -14 4 -10 0z"/>
<path d="M9258 6968 c-6 -17 17 -60 26 -51 4 4 4 0 1 -9 -4 -11 1 -23 14 -35
12 -9 21 -23 21 -31 0 -8 5 -10 13 -6 6 4 8 3 4 -1 -12 -14 -40 -15 -57 -2
-13 10 -13 10 -3 -4 7 -9 9 -20 5 -24 -4 -5 1 -5 10 -2 20 7 35 -9 16 -16 -8
-3 -6 -6 5 -6 15 -1 16 -5 7 -21 -13 -24 -7 -26 13 -5 13 13 16 13 21 -1 3 -8
2 -13 -3 -10 -5 3 -14 -1 -21 -9 -10 -12 -10 -15 0 -15 6 0 10 -6 7 -12 -2 -7
5 -18 16 -24 13 -7 16 -14 8 -18 -6 -4 -11 -1 -11 6 0 10 -3 9 -10 -2 -6 -9
-5 -19 2 -28 13 -15 -5 -33 -26 -28 -6 2 -8 1 -3 -1 17 -10 5 -33 -17 -33 -21
0 -24 -5 -23 -27 1 -15 -2 -28 -8 -29 -5 0 -18 -4 -28 -8 -9 -5 -33 -5 -53 -1
-33 6 -35 5 -29 -14 7 -22 -9 -29 -21 -9 -5 8 -10 7 -18 -4 -17 -22 -59 -43
-64 -30 -1 5 -12 8 -23 5 -12 -3 -18 -11 -15 -19 3 -7 0 -16 -6 -20 -6 -4 -8
-3 -4 4 10 17 -39 25 -74 12 -3 -1 -9 -2 -14 -1 -4 1 -14 -4 -22 -10 -8 -6
-14 -8 -14 -3 0 5 -5 1 -11 -8 -5 -10 -19 -18 -30 -18 -11 0 -17 4 -14 10 3 6
-1 7 -9 4 -9 -3 -13 -11 -10 -16 4 -6 -2 -7 -16 -3 -17 5 -21 4 -16 -6 4 -8 0
-5 -8 5 -9 11 -16 14 -16 7 0 -7 -4 -10 -9 -7 -5 3 -14 -1 -21 -9 -11 -13 -10
-14 6 -8 16 6 17 5 4 -10 -14 -15 -16 -14 -34 6 l-19 22 7 -27 c5 -21 3 -28
-9 -28 -8 0 -15 4 -15 10 0 5 -3 9 -7 9 -5 -1 -10 0 -13 1 -20 8 -57 4 -53 -6
2 -7 0 -15 -6 -19 -6 -3 -11 -10 -11 -15 0 -10 3 -10 155 14 55 9 123 16 150
16 28 0 118 11 200 24 83 13 173 24 200 25 28 1 90 11 140 22 49 10 110 19
135 19 62 0 84 22 66 65 -7 17 -20 36 -29 44 -10 7 -17 20 -17 27 0 7 -11 20
-23 29 -13 8 -29 26 -35 40 -24 52 -196 278 -205 269 -3 -3 -4 3 -3 13 0 10
-5 17 -12 15 -8 -1 -11 2 -8 7 3 5 0 14 -8 20 -10 9 -15 8 -18 -1z m55 -405
c-7 -2 -19 -2 -25 0 -7 3 -2 5 12 5 14 0 19 -2 13 -5z m-334 -127 c-2 -2 -15
-9 -29 -15 -24 -11 -24 -11 -6 3 16 13 49 24 35 12z"/>
<path d="M9290 6851 c0 -5 5 -13 10 -16 6 -3 10 -2 10 4 0 5 -4 13 -10 16 -5
3 -10 2 -10 -4z"/>
<path d="M11055 6840 c3 -5 1 -10 -4 -10 -6 0 -11 -4 -11 -9 0 -5 8 -8 18 -7
9 2 16 6 15 9 -2 4 -3 12 -3 17 0 6 -5 10 -11 10 -5 0 -7 -4 -4 -10z"/>
<path d="M11036 6588 c3 -4 9 -8 15 -8 5 0 9 4 9 8 0 5 -7 9 -15 9 -8 0 -12
-4 -9 -9z"/>
<path d="M11065 6569 c-4 -6 -5 -12 -2 -15 2 -3 7 2 10 11 7 17 1 20 -8 4z"/>
<path d="M9213 6533 c0 -7 4 -13 9 -13 4 0 8 5 8 11 0 5 4 8 9 4 5 -3 12 -1
16 5 3 6 -4 9 -18 8 -13 -1 -24 -8 -24 -15z"/>
<path d="M9083 6491 c-13 -11 -23 -22 -23 -25 0 -12 38 13 44 29 7 19 6 19
-21 -4z"/>
<path d="M11470 6436 c0 -2 7 -6 15 -10 8 -3 15 -1 15 4 0 6 -7 10 -15 10 -8
0 -15 -2 -15 -4z"/>
<path d="M8510 6344 c0 -14 -2 -15 -17 -3 -15 13 -15 12 -4 -8 11 -21 10 -22
-13 -13 -20 7 -24 6 -21 -8 2 -12 10 -16 31 -14 58 5 76 12 70 28 -3 9 -1 12
4 9 6 -3 10 -1 10 6 0 7 -10 9 -25 7 -13 -3 -22 -1 -19 3 3 5 0 9 -5 9 -6 0
-11 -7 -11 -16z"/>
<path d="M11844 6324 c0 -17 6 -24 20 -24 20 0 20 0 0 15 -17 13 -17 14 -1 15
23 0 22 15 -1 17 -13 1 -18 -6 -18 -23z"/>
<path d="M11940 6308 c22 -22 65 -31 79 -15 8 10 7 14 -4 14 -8 0 -12 -4 -9
-9 3 -4 1 -8 -5 -8 -5 0 -13 5 -16 10 -4 6 -11 8 -16 4 -5 -3 -18 0 -27 7 -15
12 -15 11 -2 -3z"/>
<path d="M8407 6299 c7 -7 15 -10 18 -7 3 3 -2 9 -12 12 -14 6 -15 5 -6 -5z"/>
<path d="M12072 6285 c3 -3 16 -8 28 -10 12 -2 20 -1 16 2 -4 4 -16 8 -28 10
-12 2 -19 1 -16 -2z"/>
<path d="M7958 6133 c7 -3 16 -2 19 1 4 3 -2 6 -13 5 -11 0 -14 -3 -6 -6z"/>
<path d="M12390 6136 c0 -2 7 -7 16 -10 8 -3 12 -2 9 4 -6 10 -25 14 -25 6z"/>
<path d="M8019 6117 c6 -8 8 -17 4 -20 -3 -4 -1 -7 5 -7 14 0 14 2 6 24 -3 9
-11 16 -16 16 -7 0 -6 -5 1 -13z"/>
<path d="M8050 6121 c0 -6 4 -13 10 -16 6 -3 7 1 4 9 -7 18 -14 21 -14 7z"/>
<path d="M12345 6110 c-3 -5 -2 -10 4 -10 5 0 13 5 16 10 3 6 2 10 -4 10 -5 0
-13 -4 -16 -10z"/>
<path d="M12163 6094 c-18 -19 -18 -19 27 -18 37 1 72 14 39 14 -11 0 -11 2 1
10 13 8 12 10 -2 10 -10 0 -18 -6 -18 -12 0 -9 -4 -8 -10 2 -9 13 -10 13 -10
0 0 -10 -3 -11 -8 -4 -5 9 -10 8 -19 -2z"/>
<path d="M12276 6102 c-2 -4 4 -8 14 -8 10 0 16 4 14 8 -3 4 -9 8 -14 8 -5 0
-11 -4 -14 -8z"/>
<path d="M8108 6088 c20 -5 39 -5 50 1 12 7 3 9 -33 9 -48 -1 -48 -1 -17 -10z"/>
<path d="M8183 6085 c1 -5 -4 -9 -11 -7 -8 1 -11 -2 -8 -6 3 -5 17 -8 32 -6
28 3 46 14 23 14 -12 0 -12 2 0 9 10 7 7 9 -12 8 -14 -1 -25 -6 -24 -12z"/>
<path d="M8240 6075 c1 -26 2 -28 11 -12 8 14 8 22 0 30 -8 8 -11 3 -11 -18z"/>
<path d="M8270 6087 c0 -8 7 -20 16 -27 8 -8 14 -9 13 -4 -3 19 1 29 9 18 12
-17 92 -52 98 -43 3 5 0 8 -7 7 -6 -2 -13 2 -16 9 -3 8 6 10 26 8 17 -2 31 0
31 5 0 6 -11 11 -25 11 -50 3 -60 4 -74 13 -10 6 -12 5 -7 -2 9 -16 -7 -15
-22 0 -7 7 -12 8 -12 4 0 -5 -7 -3 -15 4 -12 10 -15 10 -15 -3z"/>
<path d="M12061 6078 c6 -12 6 -18 -1 -18 -5 0 -10 5 -10 10 0 6 -9 10 -20 10
-18 0 -29 -19 -12 -21 32 -5 57 -2 55 7 -1 7 9 9 25 7 25 -4 26 -3 7 8 -11 7
-28 14 -37 14 -13 1 -15 -2 -7 -17z"/>
<path d="M11988 6075 c-7 -7 -47 -17 -75 -18 -13 -1 -23 -6 -23 -11 0 -6 -5
-4 -10 4 -9 13 -10 13 -10 0 0 -12 -2 -12 -9 -2 -6 10 -10 10 -21 -3 -7 -8 -9
-15 -4 -16 59 -5 74 -3 74 11 1 13 2 12 10 -1 8 -14 20 -16 65 -10 6 0 11 12
11 26 2 26 1 29 -8 20z"/>
<path d="M8459 6065 c0 0 -2 -13 -4 -30 -2 -16 -1 -22 2 -12 2 9 9 15 14 11 6
-3 16 0 24 6 13 10 15 8 15 -13 0 -32 26 -31 55 2 17 19 23 21 32 9 8 -10 9
-18 1 -28 -8 -12 -9 -12 -4 2 3 10 0 20 -5 24 -7 4 -9 -3 -7 -17 3 -24 27 -33
40 -15 4 6 17 3 32 -7 24 -16 26 -16 46 6 19 20 21 20 14 2 -4 -11 -12 -26
-17 -33 -7 -9 -4 -11 14 -9 12 2 25 10 27 18 3 11 1 11 -7 -1 -9 -13 -11 -13
-11 3 0 9 7 17 15 17 8 0 18 0 22 1 4 0 9 -5 11 -13 2 -9 0 -8 -8 2 -10 13
-11 12 -6 -3 3 -10 6 -24 6 -31 0 -7 7 -13 15 -13 11 0 12 4 4 13 -6 7 -6 15
-1 18 5 3 14 -6 21 -20 l11 -25 30 21 c25 18 30 19 30 6 0 -9 7 -16 15 -16 9
0 25 -9 37 -19 25 -24 52 -16 44 12 -3 14 -2 17 6 9 6 -6 18 -8 27 -5 13 3 12
2 -2 -7 -9 -6 -15 -15 -12 -21 4 -5 15 -3 28 5 18 12 24 12 34 1 6 -7 9 -16 5
-20 -4 -4 3 -4 15 -1 12 4 24 2 28 -4 3 -5 1 -10 -6 -10 -7 0 -10 -2 -7 -5 8
-9 38 6 32 16 -3 5 0 9 5 9 6 0 11 -9 11 -20 0 -13 5 -18 15 -14 9 4 15 1 15
-7 0 -8 6 -5 15 7 9 12 14 14 15 6 0 -8 9 -12 23 -10 17 2 22 -2 21 -17 -1
-14 5 -21 17 -21 13 0 15 3 7 13 -15 19 -2 16 17 -4 14 -14 18 -14 26 -2 5 8
9 9 9 3 0 -5 -6 -16 -12 -23 -11 -10 -9 -11 6 -5 13 5 17 4 12 -4 -3 -6 -2
-13 3 -16 5 -4 12 2 14 11 4 17 5 17 6 1 0 -10 6 -18 12 -18 5 0 7 -6 3 -12
-6 -10 -5 -10 7 -1 13 10 16 10 16 -2 0 -8 -5 -15 -11 -15 -6 0 -4 -5 4 -10 9
-6 11 -10 3 -10 -7 0 -10 -7 -6 -15 3 -9 8 -14 11 -11 2 3 13 1 24 -5 19 -10
16 -29 -5 -29 -7 0 -6 4 3 10 12 7 10 9 -7 8 -21 -2 -21 -28 1 -28 6 0 5 -4
-3 -9 -18 -11 -25 -81 -8 -81 8 0 8 -3 2 -8 -5 -4 -19 -18 -30 -32 l-20 -25
28 24 c36 33 35 17 -2 -17 -19 -19 -29 -37 -29 -59 -1 -42 11 -49 28 -18 7 14
17 25 21 25 4 0 16 15 27 33 20 35 30 47 95 125 21 25 46 57 54 71 9 14 31 42
49 61 18 19 43 57 54 83 26 59 16 77 -42 77 -21 0 -94 11 -161 24 -67 14 -160
27 -207 30 -47 3 -101 10 -120 15 -19 6 -89 15 -155 21 -185 17 -195 18 -232
31 -19 6 -45 9 -59 6 -13 -2 -24 0 -24 5 0 5 -10 8 -22 7 -13 -2 -34 1 -47 5
-19 6 -28 4 -39 -10 -12 -15 -13 -15 -9 -2 5 13 -3 17 -39 20 -24 2 -44 3 -45
3z m195 -41 c3 -8 2 -12 -4 -9 -6 3 -10 10 -10 16 0 14 7 11 14 -7z m190 -52
c3 -5 -1 -9 -9 -9 -8 0 -15 4 -15 9 0 4 4 8 9 8 6 0 12 -4 15 -8z m63 -18 c-3
-3 -12 -4 -19 -1 -8 3 -5 6 6 6 11 1 17 -2 13 -5z m47 -35 c-3 -5 -10 -7 -15
-3 -5 3 -7 10 -3 15 3 5 10 7 15 3 5 -3 7 -10 3 -15z m406 -449 c0 -11 -2 -20
-4 -20 -2 0 -6 9 -9 20 -3 11 -1 20 4 20 5 0 9 -9 9 -20z"/>
<path d="M11772 6053 c-27 -5 -24 -27 4 -31 10 -2 26 -6 34 -9 8 -3 26 -8 40
-10 l25 -3 -27 15 c-17 10 -25 21 -22 30 6 15 -6 17 -54 8z"/>
<path d="M12085 6050 c-3 -6 1 -7 9 -4 18 7 21 14 7 14 -6 0 -13 -4 -16 -10z"/>
<path d="M11660 6034 c-65 -17 -97 -21 -256 -34 -67 -5 -132 -14 -145 -18 -13
-5 -64 -12 -114 -16 -121 -10 -154 -14 -264 -37 -52 -10 -113 -19 -136 -19
-22 0 -46 -5 -53 -12 -19 -19 -14 -58 13 -92 49 -60 130 -165 155 -201 14 -20
45 -62 70 -93 25 -31 54 -70 64 -86 13 -20 20 -25 26 -16 6 10 9 9 13 -1 3 -8
6 -4 6 10 1 16 -3 22 -13 18 -11 -4 -13 -1 -9 10 5 13 2 15 -11 10 -11 -4 -15
-3 -10 4 3 6 16 8 28 5 20 -5 20 -4 3 9 -11 7 -24 12 -30 11 -7 -2 -9 -1 -4 2
4 2 12 13 18 24 10 18 9 19 -11 8 -13 -7 -20 -8 -16 -2 3 6 1 12 -5 14 -9 3
-9 9 0 25 14 27 14 43 0 43 -5 0 -7 -4 -4 -10 3 -5 1 -10 -5 -10 -7 0 -9 7 -6
16 3 9 6 21 6 27 0 7 5 6 11 -3 9 -12 10 -12 5 3 -3 10 -6 21 -6 23 0 3 -3 3
-7 1 -5 -3 -9 9 -10 25 -1 17 -7 36 -13 43 -8 9 -6 14 5 19 9 3 13 2 10 -3 -3
-5 -1 -12 4 -15 5 -4 8 5 6 19 -1 14 2 28 7 31 4 3 6 10 3 15 -3 5 1 6 10 2
12 -4 13 -8 5 -13 -8 -5 -7 -9 4 -13 9 -4 16 -3 17 1 4 42 25 76 40 66 5 -3 9
-1 9 5 0 6 13 8 33 5 24 -4 28 -3 17 5 -12 9 -11 11 8 11 12 0 22 5 22 11 0 6
9 8 23 4 12 -4 24 -8 27 -9 3 0 5 2 5 6 0 8 36 37 48 38 4 0 7 -5 7 -11 0 -5
-4 -8 -9 -4 -5 3 -12 1 -15 -4 -5 -8 15 -8 34 -1 3 1 9 2 14 1 5 -1 3 6 -5 15
-13 16 -11 17 23 11 26 -4 42 -1 52 9 18 17 27 18 24 2 -2 -7 4 -11 12 -9 8 2
21 4 29 4 10 0 9 3 -3 12 -14 10 -14 14 -3 18 8 3 20 0 27 -6 10 -9 11 -9 6 1
-9 14 4 15 38 2 21 -8 24 -7 19 8 -6 15 -4 15 14 -1 14 -12 23 -15 28 -7 3 6
1 9 -6 8 -6 -2 -14 3 -17 11 -3 9 0 11 8 6 8 -5 18 -1 25 9 12 16 13 16 19 0
4 -10 1 -21 -6 -26 -10 -7 -9 -8 2 -5 10 3 14 14 12 31 l-3 28 22 -21 c13 -12
25 -18 28 -14 3 5 16 17 29 27 19 17 22 17 16 3 -3 -10 -1 -17 6 -17 6 0 8 -5
4 -12 -4 -7 -3 -8 4 -4 6 4 9 13 6 20 -3 8 3 16 14 18 15 4 19 1 16 -16 -2
-11 -2 -16 2 -9 3 7 11 11 17 9 7 -1 8 -1 4 2 -4 2 -3 10 4 18 8 10 8 14 0 14
-6 0 -11 7 -11 15 0 18 -8 18 -80 -1z m-330 -105 c0 -5 5 -7 12 -3 7 4 8 3 4
-4 -4 -6 -13 -9 -21 -5 -17 6 -20 23 -5 23 6 0 10 -5 10 -11z"/>
<path d="M8485 6010 c3 -5 8 -10 11 -10 2 0 4 5 4 10 0 6 -5 10 -11 10 -5 0
-7 -4 -4 -10z"/>
<path d="M8638 5983 c7 -3 16 -2 19 1 4 3 -2 6 -13 5 -11 0 -14 -3 -6 -6z"/>
<path d="M11655 5970 c3 -5 8 -10 11 -10 2 0 4 5 4 10 0 6 -5 10 -11 10 -5 0
-7 -4 -4 -10z"/>
<path d="M11160 5850 c0 -5 5 -10 11 -10 5 0 7 5 4 10 -3 6 -8 10 -11 10 -2 0
-4 -4 -4 -10z"/>
<path d="M9180 5845 c0 -7 30 -13 34 -7 3 4 -4 9 -15 9 -10 1 -19 0 -19 -2z"/>
<path d="M11045 5809 c-4 -6 -4 -13 -1 -16 3 -4 6 -1 6 6 0 7 5 9 12 5 7 -4 8
-3 4 4 -9 15 -13 15 -21 1z"/>
<path d="M9834 5567 c-61 -43 -296 -229 -377 -300 -18 -15 -24 -24 -14 -21 13
5 16 2 11 -10 -3 -9 -1 -16 6 -16 6 0 9 3 6 8 -15 24 58 52 75 28 11 -15 49 3
42 21 -5 12 1 14 30 10 21 -3 34 -1 31 4 -3 5 -10 7 -15 4 -5 -4 -9 -2 -9 4 0
13 34 23 54 15 11 -4 15 -14 11 -28 -2 -11 -2 -15 1 -9 4 10 11 10 26 2 16 -8
19 -8 13 1 -4 7 4 4 19 -5 28 -18 34 -35 14 -35 -7 0 -2 -7 10 -16 14 -9 21
-22 18 -31 -3 -8 -1 -11 4 -8 14 9 12 -9 -2 -24 -11 -11 -9 -11 9 -2 15 7 24
8 28 1 4 -6 1 -9 -5 -8 -7 2 -14 -5 -15 -14 -3 -14 0 -16 15 -8 13 7 20 6 24
-6 3 -8 2 -12 -4 -9 -6 3 -10 -1 -10 -9 0 -9 -5 -16 -11 -16 -6 0 -3 -7 6 -16
10 -10 14 -26 11 -37 -3 -12 0 -27 6 -34 9 -11 7 -12 -8 -7 -14 6 -13 2 6 -14
19 -17 21 -21 6 -15 -13 4 -17 3 -12 -5 4 -7 15 -12 24 -12 10 0 13 -3 7 -8
-13 -9 -11 -41 4 -70 6 -12 9 -22 5 -22 -3 0 -2 -6 3 -12 13 -18 10 -37 -7
-48 -10 -7 -11 -10 -2 -10 6 0 12 -7 12 -15 0 -7 8 -19 18 -25 15 -10 14 -10
-4 -5 -27 7 -28 -22 -1 -46 15 -14 15 -18 3 -22 -8 -3 -17 -1 -20 6 -3 9 -5 9
-5 0 -1 -7 7 -20 17 -30 25 -25 45 -73 30 -73 -6 0 -17 8 -25 18 -12 15 -12
14 -2 -10 7 -15 15 -25 19 -23 4 2 7 -2 7 -10 0 -8 -3 -13 -6 -12 -3 1 -6 -2
-6 -8 0 -5 2 -9 6 -8 3 1 10 -6 16 -16 9 -14 8 -18 -3 -18 -7 0 -11 4 -8 9 3
4 -1 8 -8 8 -8 0 -14 -9 -14 -19 0 -11 3 -19 6 -19 18 2 30 -3 30 -13 0 -5 -4
-8 -8 -5 -4 2 -9 -4 -9 -15 -1 -10 3 -19 8 -19 6 0 7 5 3 12 -4 7 -3 8 5 4 7
-5 9 -16 5 -28 -4 -15 -3 -18 6 -13 9 5 11 4 6 -3 -4 -7 -2 -12 5 -12 7 0 9
-3 6 -7 -4 -3 -15 1 -26 11 -17 16 -18 15 -18 -30 0 -25 3 -40 7 -34 4 7 5 22
3 34 -4 17 -3 18 6 6 14 -20 14 -53 -1 -69 -7 -7 -8 -11 -3 -9 6 2 10 -2 10
-7 0 -5 -4 -9 -10 -7 -5 2 -2 -5 6 -15 9 -10 19 -25 23 -33 7 -13 6 -13 -6 0
-16 18 -38 24 -38 10 0 -6 7 -10 15 -10 8 0 15 -8 15 -18 0 -10 4 -22 9 -27 5
-6 12 -21 15 -35 7 -24 6 -24 -9 3 -9 15 -20 27 -25 27 -5 0 -1 -14 10 -32 18
-30 18 -33 2 -52 -9 -11 -12 -16 -5 -13 11 7 18 -6 28 -52 3 -12 7 -30 9 -41
5 -23 -4 -26 -24 -7 -12 10 -12 9 0 -6 12 -16 12 -20 -1 -29 -11 -8 -10 -9 5
-4 16 5 17 2 13 -21 -4 -16 -4 -22 -1 -15 7 15 31 16 40 0 4 -7 3 -8 -5 -4 -6
4 -18 1 -26 -8 -17 -17 -20 -36 -5 -36 11 0 9 -28 -3 -46 -4 -7 0 -17 8 -24
10 -9 15 -9 15 -1 0 6 -5 11 -12 11 -6 0 -9 3 -6 6 4 3 16 0 28 -6 16 -8 19
-15 11 -24 -6 -7 -8 -16 -4 -19 3 -4 -2 -7 -11 -7 -13 0 -16 -5 -11 -17 4 -10
7 -26 7 -35 0 -10 3 -18 7 -18 4 0 8 -7 8 -15 0 -8 -4 -12 -8 -9 -4 2 -10 0
-13 -5 -5 -8 29 -25 47 -22 11 2 8 -17 -4 -25 -8 -4 -7 -9 2 -15 11 -7 9 -9
-6 -9 -11 0 -27 -5 -35 -11 -12 -8 -10 -10 11 -6 16 2 26 -1 26 -9 0 -7 -5
-10 -10 -7 -6 4 -8 -1 -4 -11 6 -14 3 -17 -10 -12 -12 5 -15 4 -8 -3 6 -6 20
-8 31 -5 20 5 21 13 22 110 1 93 -1 104 -16 102 -9 -2 -20 -7 -24 -13 -4 -6
-8 -2 -8 8 0 12 6 17 18 15 14 -2 17 4 17 37 -1 44 -15 177 -20 185 -2 3 -6
93 -9 200 -8 250 -15 361 -26 430 -12 71 -20 177 -25 315 -5 170 -26 508 -31
517 -3 5 -8 41 -10 80 -8 111 -22 126 -80 85z m-279 -277 c10 -11 16 -20 13
-20 -3 0 -13 9 -23 20 -10 11 -16 20 -13 20 3 0 13 -9 23 -20z m235 -60 c0 -5
-2 -10 -4 -10 -3 0 -8 5 -11 10 -3 6 -1 10 4 10 6 0 11 -4 11 -10z m99 -354
c-3 -3 -11 5 -18 17 -13 21 -12 21 5 5 10 -10 16 -20 13 -22z m81 -690 c0 -3
-4 -8 -10 -11 -5 -3 -10 -1 -10 4 0 6 5 11 10 11 6 0 10 -2 10 -4z m25 -326
c-3 -5 -12 -10 -18 -10 -7 0 -6 4 3 10 19 12 23 12 15 0z"/>
<path d="M10456 5575 c-8 -21 -13 -75 -26 -255 -6 -85 -15 -189 -20 -230 -6
-41 -12 -156 -15 -255 -4 -166 -10 -265 -20 -340 -7 -48 -24 -299 -42 -590
-22 -376 -22 -366 -13 -360 5 3 2 -8 -6 -24 -14 -28 -16 -91 -3 -91 4 0 12 6
18 14 10 11 8 16 -5 24 -15 9 -16 14 -6 34 12 23 12 23 8 0 -2 -12 -1 -20 4
-17 4 3 10 23 12 44 2 22 0 37 -3 35 -4 -2 -9 2 -12 10 -4 10 1 13 16 10 12
-2 16 -2 10 2 -10 4 -10 10 2 26 10 15 11 26 4 39 -10 20 4 35 23 23 7 -5 8
-3 4 5 -5 7 -14 10 -22 7 -8 -3 -14 -1 -14 4 0 6 7 10 16 10 14 0 14 1 0 16
-16 15 -13 39 4 29 7 -5 22 33 24 65 2 25 -15 55 -24 41 -5 -9 -9 -9 -13 3 -8
21 11 20 35 -1 10 -9 18 -12 19 -7 0 5 2 17 4 27 2 9 -1 15 -6 11 -5 -3 -7
-10 -4 -15 14 -22 -3 -6 -25 24 -14 18 -16 26 -7 18 12 -9 17 -10 17 -2 0 7 5
9 10 6 6 -3 10 -1 10 4 0 6 -4 11 -10 11 -5 0 -10 5 -10 11 0 5 5 7 10 4 6 -3
10 -2 10 4 0 5 -5 13 -10 16 -8 5 -7 12 2 23 10 12 10 16 1 19 -16 6 -17 24
-2 20 6 -1 14 4 16 11 3 6 0 12 -7 12 -6 0 -8 5 -5 10 3 6 1 10 -5 10 -7 0 -8
5 -3 13 4 6 8 26 8 42 0 24 4 29 20 27 20 -4 20 -3 0 16 -12 10 -27 22 -35 25
-11 4 -10 6 3 6 20 1 56 31 38 31 -6 0 -11 7 -11 15 0 8 5 15 12 15 6 0 3 7
-8 15 -19 15 -19 15 1 9 19 -5 19 -5 2 9 -12 10 -15 17 -7 22 8 5 8 11 -1 21
-11 14 -2 19 24 15 5 -1 4 6 -1 16 -7 11 -6 21 3 30 7 7 12 21 11 30 -2 10 2
21 8 25 6 4 1 6 -12 5 -12 0 -22 -8 -23 -17 0 -11 -2 -11 -6 -2 -3 7 3 22 13
33 9 10 13 19 8 19 -5 0 0 8 11 17 16 12 16 14 3 10 -10 -3 -20 -1 -24 5 -4 6
-3 9 2 5 5 -3 18 1 29 9 17 12 18 16 5 24 -8 5 -17 7 -21 5 -3 -3 -4 7 -1 21
3 19 7 22 13 12 6 -9 9 -4 10 17 1 17 2 43 3 58 0 15 7 31 14 36 11 6 10 10
-5 16 -10 5 -22 7 -26 6 -5 -1 -6 3 -2 9 3 6 11 8 16 5 13 -9 11 19 -3 35 -11
12 -10 12 3 2 16 -12 29 -7 29 10 0 5 -4 7 -9 4 -5 -3 -12 1 -15 10 -3 8 -2
12 4 9 9 -6 15 22 11 54 -2 8 2 10 11 5 8 -5 7 2 -4 18 -16 25 -16 27 2 49 23
25 25 35 8 45 -7 5 -8 3 -3 -6 5 -8 4 -11 -3 -7 -12 8 -10 32 3 44 4 4 5 2 1
-4 -4 -7 -2 -13 3 -13 15 0 14 13 -1 29 -10 11 -10 13 0 7 8 -5 12 0 12 14 0
16 4 20 16 16 14 -5 15 -4 5 8 -7 8 -14 27 -16 43 -2 15 -2 22 1 16 3 -7 10
-13 15 -13 6 0 8 4 4 10 -3 5 2 17 12 27 18 17 18 19 -2 36 -11 10 -14 15 -6
11 11 -5 13 -3 8 9 -3 10 -2 17 3 17 6 0 10 -6 10 -14 0 -8 4 -17 10 -21 11
-7 7 56 -5 76 -7 12 -6 12 7 1 11 -9 18 -10 23 -2 3 5 17 8 31 6 14 -3 22 -1
19 5 -6 8 15 13 42 10 8 -1 10 5 7 16 -5 17 -5 17 6 0 6 -10 9 -25 6 -33 -4
-12 -2 -12 14 -4 19 10 25 6 20 -15 -1 -5 4 -5 11 2 9 9 9 16 1 26 -9 11 -8
14 3 14 8 0 12 -3 10 -7 -2 -4 3 -16 11 -26 14 -17 15 -17 10 -1 -6 17 10 23
29 9 13 -8 13 -22 1 -42 -6 -9 1 -6 14 5 13 11 20 14 16 8 -5 -9 0 -13 14 -13
12 0 19 4 16 8 -3 5 1 9 9 9 8 0 12 -4 9 -9 -3 -4 0 -8 6 -8 6 0 8 -4 5 -10
-3 -5 4 -10 15 -10 15 0 20 -5 17 -14 -3 -8 2 -20 11 -28 16 -12 16 -11 2 6
-14 18 -13 18 9 11 28 -9 25 13 -4 29 -11 6 -26 19 -33 29 -7 9 -18 17 -23 17
-6 0 -23 11 -37 24 -15 13 -65 59 -112 101 -47 42 -101 85 -121 95 -19 10 -42
26 -50 36 -18 22 -99 74 -115 74 -6 0 -14 -7 -18 -15z m198 -263 c3 -5 -1 -9
-9 -9 -8 0 -15 4 -15 9 0 4 4 8 9 8 6 0 12 -4 15 -8z m-197 -674 c-3 -7 -5 -2
-5 12 0 14 2 19 5 13 2 -7 2 -19 0 -25z m-10 -224 c-3 -3 -12 -4 -19 -1 -8 3
-5 6 6 6 11 1 17 -2 13 -5z m-46 -371 c7 -10 9 -15 5 -11 -5 4 -15 3 -22 -3
-11 -9 -13 2 -5 29 2 6 10 1 22 -15z m-30 -246 c-6 -8 -7 -18 -3 -22 4 -5 1
-5 -6 -1 -10 6 -10 11 -1 22 6 8 14 14 16 14 3 0 0 -6 -6 -13z m-17 -172 c-4
-8 -11 -15 -16 -15 -6 0 -5 6 2 15 7 8 14 15 16 15 2 0 1 -7 -2 -15z"/>
<path d="M10987 5556 c-4 -10 0 -12 14 -9 10 3 16 9 13 14 -8 13 -21 11 -27
-5z"/>
<path d="M9315 5424 c3 -14 -1 -26 -12 -35 -15 -12 -16 -12 -10 4 4 11 3 16
-3 12 -6 -3 -10 -18 -10 -32 l0 -26 25 27 c28 30 29 35 14 56 -8 12 -9 11 -4
-6z"/>
<path d="M11057 5414 c7 -3 11 -11 9 -17 -1 -7 -1 -9 1 -4 3 4 10 4 16 0 7 -4
6 1 -2 10 -7 9 -19 17 -25 16 -7 0 -7 -2 1 -5z"/>
<path d="M11040 5370 c0 -5 5 -10 11 -10 5 0 7 5 4 10 -3 6 -8 10 -11 10 -2 0
-4 -4 -4 -10z"/>
<path d="M11071 5344 c0 -12 7 -28 17 -35 15 -12 16 -12 6 1 -7 8 -14 24 -17
35 -4 19 -5 19 -6 -1z"/>
<path d="M9250 5309 c0 -5 5 -7 10 -4 6 3 10 8 10 11 0 2 -4 4 -10 4 -5 0 -10
-5 -10 -11z"/>
<path d="M10599 5253 c-13 -16 -12 -17 4 -4 9 7 17 15 17 17 0 8 -8 3 -21 -13z"/>
<path d="M11128 5263 c6 -2 9 -10 6 -15 -4 -7 -2 -8 5 -4 13 9 5 26 -12 25 -9
0 -8 -2 1 -6z"/>
<path d="M9510 5242 c0 -5 7 -9 15 -9 8 0 12 4 9 9 -3 4 -9 8 -15 8 -5 0 -9
-4 -9 -8z"/>
<path d="M9383 5203 c9 -2 17 -9 17 -14 0 -6 5 -7 10 -4 16 10 1 25 -23 24
-17 -1 -18 -2 -4 -6z"/>
<path d="M9357 5175 c-8 -8 -17 -11 -20 -8 -3 3 -14 -2 -23 -11 -13 -14 -14
-20 -4 -29 9 -8 11 -8 7 -1 -4 7 -1 17 7 23 11 9 15 9 19 -1 4 -11 6 -10 6 0
1 7 6 10 11 7 6 -4 9 -1 8 7 -2 7 3 12 10 11 6 -2 12 2 12 7 0 14 -16 12 -33
-5z"/>
<path d="M10995 5169 c-11 -16 -1 -19 13 -3 7 8 8 14 3 14 -5 0 -13 -5 -16
-11z"/>
<path d="M11025 5149 c-4 -11 -5 -21 -3 -22 1 -1 14 -8 27 -15 16 -9 21 -10
16 -2 -5 9 -1 10 16 5 l24 -7 -22 16 c-12 9 -29 13 -38 9 -14 -5 -16 -2 -10
15 3 12 4 22 1 22 -2 0 -8 -9 -11 -21z"/>
<path d="M9254 5105 c-4 -8 -10 -13 -14 -10 -5 3 -12 0 -16 -6 -4 -8 -3 -9 4
-5 7 4 12 0 13 -11 0 -13 4 -11 12 8 9 20 18 25 37 23 19 -3 22 -2 10 6 -22
14 -40 12 -46 -5z"/>
<path d="M10530 5106 c0 -2 8 -10 18 -17 15 -13 16 -12 3 4 -13 16 -21 21 -21
13z"/>
<path d="M11116 5081 c-4 -5 -2 -12 3 -15 5 -4 12 -2 15 3 4 5 2 12 -3 15 -5
4 -12 2 -15 -3z"/>
<path d="M9166 5043 c-6 -14 -5 -15 5 -6 7 7 10 15 7 18 -3 3 -9 -2 -12 -12z"/>
<path d="M11175 5030 c-3 -6 1 -7 9 -4 18 7 21 14 7 14 -6 0 -13 -4 -16 -10z"/>
<path d="M10500 4917 c0 -9 4 -18 9 -21 5 -4 8 1 7 9 -3 21 -16 31 -16 12z"/>
<path d="M9855 4830 c3 -5 11 -10 16 -10 6 0 7 5 4 10 -3 6 -11 10 -16 10 -6
0 -7 -4 -4 -10z"/>
<path d="M9885 4620 c3 -5 8 -10 11 -10 2 0 4 5 4 10 0 6 -5 10 -11 10 -5 0
-7 -4 -4 -10z"/>
<path d="M10441 4324 c0 -11 3 -14 6 -6 3 7 2 16 -1 19 -3 4 -6 -2 -5 -13z"/>
<path d="M9996 3595 c4 -8 10 -12 15 -9 11 6 2 24 -11 24 -5 0 -7 -7 -4 -15z"/>
<path d="M10365 3569 c-4 -6 -5 -12 -2 -15 2 -3 7 2 10 11 7 17 1 20 -8 4z"/>
<path d="M10355 3529 c-4 -6 -5 -12 -2 -15 2 -3 7 2 10 11 7 17 1 20 -8 4z"/>
<path d="M10035 3480 c3 -6 -1 -7 -9 -4 -9 3 -16 1 -16 -5 0 -6 7 -11 15 -11
8 0 15 -7 15 -15 0 -8 -3 -15 -8 -15 -4 0 -12 -8 -18 -18 -10 -15 -8 -18 10
-20 16 -1 18 1 6 8 -13 8 -13 10 2 10 9 0 19 -10 21 -22 6 -31 6 39 0 75 -2
15 -9 27 -14 27 -6 0 -7 -4 -4 -10z"/>
<path d="M10330 3423 c0 -4 5 -15 10 -23 8 -13 10 -13 10 2 0 9 -4 20 -10 23
-5 3 -10 3 -10 -2z"/>
<path d="M10300 3398 c0 -17 6 -24 22 -25 13 -1 18 1 13 5 -6 4 -10 13 -10 21
0 8 -6 16 -12 19 -8 2 -13 -6 -13 -20z"/>
<path d="M10016 3371 c-3 -5 1 -11 9 -15 8 -3 12 -12 9 -21 -4 -10 0 -15 10
-15 9 0 16 8 16 18 0 19 -36 46 -44 33z"/>
<path d="M10302 3343 c5 -25 28 -28 28 -4 0 12 -6 21 -16 21 -9 0 -14 -7 -12
-17z"/>
<path d="M10038 3303 c7 -3 16 -2 19 1 4 3 -2 6 -13 5 -11 0 -14 -3 -6 -6z"/>
<path d="M10313 3295 c6 -7 15 -11 20 -8 13 8 7 19 -13 20 -16 1 -17 -1 -7
-12z"/>
<path d="M10040 3274 c0 -8 5 -12 10 -9 6 4 8 11 5 16 -9 14 -15 11 -15 -7z"/>
<path d="M10292 3240 c1 -25 4 -28 19 -19 10 5 21 14 25 21 4 6 3 8 -3 5 -6
-4 -13 0 -17 8 -9 26 -25 16 -24 -15z m22 4 c3 -8 2 -12 -4 -9 -6 3 -10 10
-10 16 0 14 7 11 14 -7z"/>
<path d="M10036 3235 c-9 -23 -8 -25 9 -19 11 5 13 2 9 -10 -3 -9 -11 -13 -18
-10 -6 3 -4 0 4 -8 17 -15 20 -39 5 -51 -6 -5 -2 -6 9 -3 15 5 17 2 13 -13 -3
-11 1 -25 8 -31 11 -9 11 -4 3 27 -5 21 -10 51 -10 68 0 16 -6 38 -13 48 -11
16 -13 16 -19 2z"/>
<path d="M10305 3202 c-17 -12 -14 -60 3 -67 9 -3 13 -3 9 1 -4 4 -2 13 3 19
8 9 5 15 -7 19 -15 6 -15 8 -3 16 8 5 12 11 9 14 -2 3 -9 2 -14 -2z"/>
<path d="M10290 3109 c0 -11 4 -18 10 -14 5 3 7 12 3 20 -7 21 -13 19 -13 -6z"/>
<path d="M10076 3047 c3 -10 9 -15 12 -12 3 3 0 11 -7 18 -10 9 -11 8 -5 -6z"/>
<path d="M10288 3053 c10 -4 10 -8 0 -21 -12 -15 -11 -16 4 -3 19 14 15 32 -5
30 -8 0 -8 -2 1 -6z"/>
<path d="M10065 3010 c3 -5 10 -10 16 -10 5 0 9 5 9 10 0 6 -7 10 -16 10 -8 0
-12 -4 -9 -10z"/>
<path d="M10274 2963 c0 -13 4 -23 9 -23 5 0 7 6 4 13 -2 6 3 17 10 22 12 9
11 11 -4 11 -13 0 -19 -7 -19 -23z"/>
<path d="M10082 2950 c0 -14 2 -19 5 -12 2 6 2 18 0 25 -3 6 -5 1 -5 -13z"/>
<path d="M10070 2901 c0 -6 4 -13 10 -16 6 -3 7 1 4 9 -7 18 -14 21 -14 7z"/>
<path d="M10264 2882 c-1 -15 1 -21 3 -14 3 6 9 9 15 6 6 -4 5 2 -1 15 -15 27
-16 27 -17 -7z"/>
<path d="M10065 2859 c-11 -17 1 -21 15 -4 8 9 8 15 2 15 -6 0 -14 -5 -17 -11z"/>
<path d="M10253 2760 c-1 -11 2 -20 7 -20 4 0 7 7 6 15 -3 23 -12 26 -13 5z"/>
<path d="M10085 2751 c-3 -5 -2 -12 3 -15 5 -3 9 1 9 9 0 17 -3 19 -12 6z"/>
<path d="M10096 2667 c3 -10 9 -15 12 -12 3 3 0 11 -7 18 -10 9 -11 8 -5 -6z"/>
<path d="M10241 2594 c0 -11 3 -14 6 -6 3 7 2 16 -1 19 -3 4 -6 -2 -5 -13z"/>
<path d="M10110 2451 c0 -6 4 -13 10 -16 6 -3 7 1 4 9 -7 18 -14 21 -14 7z"/>
<path d="M10233 2415 c0 -8 4 -12 9 -9 5 3 6 10 3 15 -9 13 -12 11 -12 -6z"/>
</g>
</svg>
